# xmcd
# 
# Track frame offsets:
#     150
#     20947
#     40155
#     59887
#     85307
#     102100
#     120587
#     132065
#     151150
#     173802
#     191187
#     211457
#     263022
# 
# Disc length: 3860
# 
# Revision: 6
# Processed by: cddbd v1.5.2PL0 Copyright (c) Steve Scherf et al.
# Submitted via: fre:ac v1.0.17
# 
DISCID=b70f120d
DTITLE=R. Kelly - 12 Play
DYEAR=1993
DGENRE=R&B
TTITLE0=Your Body's Callin'
TTITLE1=Bump N' Grind
TTITLE2=Homie Lover Friend
TTITLE3=It Seems Like You're Ready
TTITLE4=Freak Dat Body
TTITLE5=I Like The Crotch On You
TTITLE6=Intermission
TTITLE7=Summer Bunnies
TTITLE8=For You
TTITLE9=Back To The Hood Of Things
TTITLE10=Sadie
TTITLE11=Sex Me (Part 1 and 2)
TTITLE12=12 Play
EXTD=
EXTT0=
EXTT1=
EXTT2=
EXTT3=
EXTT4=
EXTT5=
EXTT6=
EXTT7=
EXTT8=
EXTT9=
EXTT10=
EXTT11=
EXTT12=
PLAYORDER=
